<?xml version="1.0" encoding="utf-8"?>
<svg version="1.1" id="Gplus" xmlns="http://www.w3.org/2000/svg" xmlns:xlink="http://www.w3.org/1999/xlink" x="0px" y="0px"
	 viewBox="0 0 64 64" style="enable-background:new 0 0 64 64;" xml:space="preserve">
<style type="text/css">
	.st0{fill:#DC4335;}
	.st1{fill:#F1F2F2;}
</style>
<title>google plus icon</title>
<path class="st0" d="M1,32C1,14.9,14.9,1,32,1s31,13.9,31,31S49.1,63,32,63S1,49.1,1,32z"/>
<path class="st1" d="M24.8,30.2v4.3h7.1c-0.3,1.8-2.1,5.4-7.1,5.4c-4.3,0-7.8-3.5-7.8-7.9s3.5-7.9,7.8-7.9c2.4,0,4.1,1,5,1.9
	l3.4-3.3c-2.2-2-5-3.3-8.4-3.3c-6.9,0-12.5,5.6-12.5,12.5s5.6,12.5,12.5,12.5c7.2,0,12-5.1,12-12.2c0-0.7-0.1-1.4-0.2-2.1L24.8,30.2
	z"/>
<path class="st1" d="M51.7,30.2h-3.6v-3.6h-3.6v3.6H41v3.6h3.6v3.6h3.6v-3.6h3.6L51.7,30.2z"/>
</svg>
